<svg width="135" height="41" fill="none" xmlns="http://www.w3.org/2000/svg"><path d="M130 40.72H5c-2.8 0-5-2.3-5-5v-30c0-2.8 2.3-5 5-5h125c2.8 0 5 2.3 5 5v30c0 2.8-2.2 5-5 5z" fill="#000"/><path d="M130 1.52c2.3 0 4.2 1.9 4.2 4.2v30c0 2.3-1.9 4.2-4.2 4.2H5c-2.3 0-4.2-1.9-4.2-4.2v-30c0-2.3 1.9-4.2 4.2-4.2h125zm0-.8H5c-2.7 0-5 2.3-5 5v30c0 2.8 2.3 5 5 5h125c2.8 0 5-2.3 5-5v-30c0-2.7-2.2-5-5-5z" fill="#A6A6A6"/><path d="M31.5 20.92c0-2.8 2.3-4.1 2.4-4.2-1.3-1.9-3.3-2.1-4-2.2-1.7-.2-3.3 1-4.2 1-.9 0-2.2-1-3.6-1-1.8 0-3.5 1.1-4.5 2.7-1.9 3.3-.5 8.3 1.4 11 .9 1.3 2 2.8 3.4 2.8 1.4-.1 1.9-.9 3.6-.9 1.7 0 2.1.9 3.6.9s2.4-1.3 3.3-2.7c1.1-1.5 1.5-3 1.5-3.1 0 .1-2.9-1-2.9-4.3z" fill="#fff"/><path d="M28.8 12.82c.7-.9 1.3-2.2 1.1-3.5-1.1 0-2.4.7-3.2 1.7-.7.8-1.3 2.1-1.1 3.4 1.2.1 2.4-.6 3.2-1.6zm20.2 15h-4.7l-1.1 3.4h-2l4.5-12.5h2.1l4.5 12.4h-2l-1.3-3.3zm-4.2-1.6h3.8l-1.8-5.4h-.1l-1.9 5.4zm17.1.4c0 2.8-1.5 4.6-3.8 4.6-1.3 0-2.3-.6-2.8-1.6v4.5h-1.9v-12h1.8v1.5c.5-1 1.6-1.6 2.9-1.6 2.3 0 3.8 1.8 3.8 4.6zm-1.9 0c0-1.8-.9-3-2.4-3-1.4 0-2.4 1.2-2.4 3s1 3 2.4 3c1.4.1 2.4-1.1 2.4-3zm11.9 0c0 2.8-1.5 4.6-3.8 4.6-1.3 0-2.3-.6-2.8-1.6v4.5h-1.9v-12h1.8v1.5c.5-1 1.6-1.6 2.9-1.6 2.3 0 3.8 1.8 3.8 4.6zm-1.9 0c0-1.8-.9-3-2.4-3-1.4 0-2.4 1.2-2.4 3s1 3 2.4 3c1.4.1 2.4-1.1 2.4-3zm8.5 1.1c.1 1.2 1.3 2 3 2 1.6 0 2.7-.8 2.7-1.9 0-1-.7-1.5-2.3-1.9l-1.6-.4c-2.3-.6-3.3-1.6-3.3-3.3 0-2.1 1.9-3.6 4.5-3.6s4.4 1.5 4.5 3.6h-2c-.1-1.2-1.1-2-2.6-2s-2.5.8-2.5 1.9c0 .9.7 1.4 2.3 1.8l1.4.3c2.5.6 3.6 1.6 3.6 3.4 0 2.3-1.9 3.8-4.8 3.8-2.8 0-4.6-1.4-4.7-3.7h1.8zm11.6-7.8v2.1h1.7v1.5h-1.7v5c0 .8.3 1.1 1.1 1.1h.6v1.5c-.2.1-.6.1-1 .1-1.8 0-2.5-.7-2.5-2.4v-5.2H87v-1.5h1.3v-2.1h1.8v-.1zm2.7 6.7c0-2.8 1.7-4.6 4.3-4.6 2.6 0 4.3 1.8 4.3 4.6 0 2.9-1.7 4.6-4.3 4.6-2.6 0-4.3-1.7-4.3-4.6zm6.7 0c0-2-.9-3.1-2.4-3.1s-2.4 1.2-2.4 3.1c0 2 .9 3.1 2.4 3.1s2.4-1.1 2.4-3.1zm3.4-4.5h1.8v1.5c.3-1 1.1-1.6 2.2-1.6.3 0 .5 0 .6.1v1.7c-.1-.1-.5-.1-.8-.1-1.2 0-1.9.8-1.9 2.1v5.4h-1.9v-9.1zm13.2 6.4c-.3 1.6-1.9 2.8-3.9 2.8-2.6 0-4.3-1.8-4.3-4.6s1.6-4.7 4.2-4.7c2.5 0 4.1 1.7 4.1 4.5v.6h-6.4v.1c0 1.5 1 2.6 2.4 2.6 1 0 1.8-.5 2.1-1.3h1.8zm-6.3-2.7h4.5c0-1.4-.9-2.3-2.2-2.3-1.2 0-2.2.9-2.3 2.3zm-66.3-13.9h.8c.7 0 1.1-.4 1.1-1s-.4-.9-1.1-.9c-.7 0-1.2.4-1.2.9h-.9c.1-1.1.9-1.7 2.1-1.7 1.2 0 2 .7 2 1.6 0 .7-.4 1.2-1.1 1.4v.1c.8.1 1.3.6 1.3 1.4 0 1-1 1.8-2.2 1.8-1.3 0-2.2-.7-2.2-1.8h.9c.1.6.6.9 1.4.9.8 0 1.3-.4 1.3-1s-.5-1-1.3-1h-.8v-.7h-.1zm4.1 2.2c0-.8.6-1.3 1.7-1.3l1.2-.1v-.4c0-.5-.3-.7-.9-.7-.5 0-.8.2-.9.5h-.9c.1-.8.8-1.3 1.8-1.3 1.1 0 1.8.6 1.8 1.5v3.1h-.9v-.7h-.1c-.3.5-.8.7-1.4.7-.8 0-1.4-.5-1.4-1.3zm2.9-.4v-.4l-1.1.1c-.6 0-.9.3-.9.6 0 .4.4.6.8.6.7.1 1.2-.4 1.2-.9zm3.2-2.1v3.8h-.9v-4.5h3v.7h-2.1zm7.5 1.5c0 1.4-.7 2.3-1.9 2.3-.6 0-1.2-.3-1.4-.8h-.1v2.2H57v-6h.9v.7h.1c.3-.5.8-.8 1.4-.8 1.1.1 1.8.9 1.8 2.4zm-.9 0c0-1-.5-1.5-1.2-1.5s-1.2.6-1.2 1.5.5 1.5 1.2 1.5 1.2-.6 1.2-1.5zm2.1 3.8v-.8h.3c.4 0 .7-.2.8-.6l.1-.2-1.6-4.5h1l1.1 3.6h.1l1.1-3.6h.9l-1.7 4.7c-.4 1.1-.8 1.4-1.7 1.4-.1.1-.4.1-.4 0zm4.4-2.8h.9c.1.4.5.6 1 .6.6 0 1-.3 1-.7 0-.4-.3-.6-1-.6H68v-.7h.7c.5 0 .8-.2.8-.6 0-.3-.3-.6-.8-.6s-.9.2-.9.6h-.9c.1-.8.8-1.3 1.8-1.3 1.1 0 1.7.5 1.7 1.2 0 .5-.3.8-.7.9v.1c.6.1.9.5.9 1 0 .9-.7 1.4-1.8 1.4s-1.9-.4-2-1.3zm5 1.2v-4.5h.9v3.1h.1l2.1-3.1h.9v4.5h-.9v-3.1h-.1l-2.1 3.1h-.9zm8.8-3.7h-1.4v3.8h-.9v-3.8h-1.4v-.7h3.7v.7zm4.8 2.5c-.2.8-.9 1.3-2 1.3-1.3 0-2.1-.9-2.1-2.3s.8-2.4 2.1-2.4 2 .9 2 2.3v.3h-3.2c0 .8.5 1.3 1.2 1.3.5 0 .9-.2 1.1-.5h.9zm-3.2-1.4h2.3c0-.7-.5-1.2-1.1-1.2-.7 0-1.1.5-1.2 1.2zm6.9-1.9h2c.9 0 1.4.4 1.4 1.1 0 .5-.3.9-.8 1v.1c.6.1 1 .5 1 1 0 .8-.6 1.3-1.6 1.3H89v-4.5h.1zm.9.7v1.2h.9c.5 0 .8-.2.8-.6 0-.4-.2-.6-.7-.6h-1zm0 1.8v1.4h1.1c.5 0 .8-.2.8-.7 0-.5-.3-.7-.9-.7h-1z" fill="#fff"/></svg>